<svg width="36" height="36" viewBox="0 0 36 36" fill="none" xmlns="http://www.w3.org/2000/svg">
<path d="M25.1429 12.5994H13.7366C12.9777 12.5994 12.8973 11.6723 13.5402 11.5193H25.1429C25.308 11.5193 25.4777 11.5283 25.6429 11.5508C25.4152 9.92623 23.9196 8.79668 22.3125 9.03069C22.2679 9.03519 22.2277 9.04419 22.183 9.05319L10.8929 10.9928C10.7411 11.0153 10.5848 11.0423 10.433 11.0738H10.4241C10.3661 11.0828 10.3125 11.0963 10.2545 11.1098C8.52679 11.5283 8.02232 13.0944 8.02232 14.0394V15.1285C8.00893 15.2455 8 15.3625 8 15.4795V24.1199C8 25.7084 9.28125 27 10.8571 27H25.1429C26.7188 27 28 25.7084 28 24.1199V15.4795C28 13.8909 26.7188 12.5994 25.1429 12.5994ZM23.0223 21.2397C22.2321 21.2397 21.5938 20.5962 21.5938 19.7997C21.5938 19.0031 22.2321 18.3596 23.0223 18.3596C23.8125 18.3596 24.4509 19.0031 24.4509 19.7997C24.4509 20.5962 23.8125 21.2397 23.0223 21.2397Z" fill="#C9C9C9"/>
</svg>
