<svg width="36" height="36" viewBox="0 0 36 36" fill="none" xmlns="http://www.w3.org/2000/svg">
<path d="M17.7102 23.8152C17.7105 22.8267 17.9772 21.8565 18.4823 21.0068C18.9873 20.157 19.7121 19.4591 20.5803 18.9864C21.4485 18.5137 22.428 18.2838 23.4159 18.3207C24.4037 18.3577 25.3633 18.6602 26.1938 19.1965C26.1996 18.7891 26.2028 18.3543 26.2028 17.8852C26.2028 15.473 26.1207 13.9676 25.9586 12.4082H25.9817C25.892 11.5393 25.5602 10.713 25.0239 10.0234C24.4877 9.33382 23.7686 8.8087 22.9485 8.50781C22.9051 8.49141 22.8617 8.47578 22.818 8.46094C22.4939 8.352 22.1588 8.27903 21.8188 8.24336L21.7864 8.23984C20.4891 8.10664 20.2809 8 17.5453 8C14.8098 8 14.3672 8.10664 13.0711 8.2418L13.0387 8.24531C12.6817 8.2828 12.3303 8.36145 11.9914 8.47969V8.46211C11.1464 8.7494 10.4016 9.27295 9.84505 9.9707C9.28855 10.6684 8.94377 11.5111 8.85159 12.3988C8.68909 13.9613 8.60628 15.4684 8.60628 17.8852C8.60628 20.302 8.68909 21.809 8.85159 23.3715C8.96255 24.4377 9.43685 25.4334 10.1949 26.1913C10.9529 26.9493 11.9486 27.4235 13.0149 27.5344L13.0473 27.5379C14.3446 27.673 14.5524 27.7797 17.2879 27.7797C18.1942 27.7797 18.8504 27.768 19.3657 27.7473C18.841 27.2357 18.4241 26.6242 18.1398 25.9489C17.8554 25.2735 17.7094 24.548 17.7102 23.8152ZM13.1399 13.2012H21.6676C21.9144 13.2012 22.151 13.2992 22.3255 13.4737C22.5 13.6482 22.5981 13.8849 22.5981 14.1316C22.5981 14.3784 22.5 14.6151 22.3255 14.7896C22.151 14.9641 21.9144 15.0621 21.6676 15.0621H13.1418C12.895 15.0621 12.6584 14.9641 12.4839 14.7896C12.3094 14.6151 12.2114 14.3784 12.2114 14.1316C12.2114 13.8849 12.3094 13.6482 12.4839 13.4737C12.6584 13.2992 12.895 13.2012 13.1418 13.2012H13.1399ZM13.1399 19.0437C12.8963 19.0388 12.6645 18.9385 12.494 18.7645C12.3236 18.5905 12.2281 18.3567 12.2281 18.1131C12.2281 17.8695 12.3236 17.6356 12.494 17.4616C12.6645 17.2877 12.8963 17.1874 13.1399 17.1824H18.0035C18.1274 17.1799 18.2504 17.2021 18.3656 17.2477C18.4807 17.2933 18.5856 17.3615 18.6741 17.4482C18.7625 17.5348 18.8328 17.6383 18.8808 17.7525C18.9288 17.8666 18.9535 17.9892 18.9535 18.1131C18.9535 18.2369 18.9288 18.3595 18.8808 18.4737C18.8328 18.5879 18.7625 18.6913 18.6741 18.778C18.5856 18.8647 18.4807 18.9328 18.3656 18.9785C18.2504 19.0241 18.1274 19.0463 18.0035 19.0437H13.1399Z" fill="#C9C9C9"/>
<path d="M23.209 19.6304C22.3813 19.6304 21.5722 19.8758 20.8841 20.3356C20.1959 20.7955 19.6595 21.449 19.3428 22.2137C19.026 22.9784 18.9432 23.8198 19.1046 24.6315C19.2661 25.4433 19.6647 26.189 20.2499 26.7742C20.8352 27.3595 21.5808 27.758 22.3926 27.9195C23.2044 28.081 24.0458 27.9981 24.8104 27.6814C25.5751 27.3646 26.2287 26.8282 26.6885 26.1401C27.1483 25.4519 27.3938 24.6428 27.3938 23.8151C27.3938 22.7053 26.9529 21.6409 26.1681 20.8561C25.3833 20.0713 24.3189 19.6304 23.209 19.6304ZM24.8676 24.4276H23.1258C22.9937 24.4276 22.867 24.3752 22.7736 24.2818C22.6802 24.1884 22.6277 24.0617 22.6277 23.9296V21.2538C22.6277 21.1217 22.6802 20.995 22.7736 20.9016C22.867 20.8082 22.9937 20.7558 23.1258 20.7558C23.2579 20.7558 23.3846 20.8082 23.478 20.9016C23.5714 20.995 23.6238 21.1217 23.6238 21.2538V23.4315H24.8676C24.9997 23.4315 25.1264 23.484 25.2198 23.5774C25.3132 23.6708 25.3656 23.7975 25.3656 23.9296C25.3656 24.0617 25.3132 24.1884 25.2198 24.2818C25.1264 24.3752 24.9997 24.4276 24.8676 24.4276Z" fill="#C9C9C9"/>
</svg>
