<svg width="20" height="20" viewBox="0 0 20 20" fill="none" xmlns="http://www.w3.org/2000/svg">
<path d="M18.2914 17.584C19.3931 16.312 19.9997 14.6856 20 13.0027C20.0005 10.1542 18.2969 7.7077 15.8554 6.61481C15.6002 5.16535 14.9653 3.8083 13.9886 2.70253C11.0647 -0.607636 6.01147 -0.920317 2.70198 2.00417C-0.607511 4.92866 -0.920129 9.98283 2.00376 13.2931L0.150631 15.1465C0.0569004 15.2403 0.00423808 15.3674 0.00423808 15.5C0.00417699 15.7761 0.228007 16 0.504073 16H6.68772C7.8112 18.3623 10.212 19.9995 13.0015 20H19.5001C19.6326 20 19.7597 19.9473 19.8534 19.8536C20.0487 19.6584 20.0487 19.3418 19.8535 19.1465L18.2914 17.584ZM6.29388 15H1.71079L3.05334 13.6573C3.24843 13.462 3.24856 13.1454 3.05334 12.9502C2.17584 12.0727 1.54749 10.9775 1.23274 9.77702C0.252782 6.03919 2.48785 2.21456 6.22486 1.2344C9.96194 0.254299 13.7858 2.48982 14.7657 6.2276C14.7657 6.2276 14.7778 6.23706 14.7809 6.23956C14.2126 6.09039 13.6193 6.00287 13.0041 6.00275C9.13972 6.00202 6.00634 9.13481 6.00561 13C6.00549 13.6991 6.11087 14.3729 6.30145 15.0098C6.30022 15.0083 6.29388 15 6.29388 15ZM13.0015 19C9.68843 19 7.00271 16.3137 7.00271 13C7.00271 9.68633 9.68843 7.00006 13.0015 7.00006C14.5921 7.00024 16.1175 7.6322 17.2424 8.75695C19.5857 11.1 19.5863 14.8994 17.2437 17.2432C17.0486 17.4384 17.0486 17.7551 17.2437 17.9502L18.2934 19H13.0015Z" fill="#0087EC"/>
</svg>
