<svg width="20" height="20" viewBox="0 0 20 20" fill="none" xmlns="http://www.w3.org/2000/svg">
<path d="M12.7 1.66699H9.455C7.985 1.66699 6.82 1.66699 5.90917 1.79033C4.97083 1.91699 4.21167 2.18366 3.61333 2.78449C3.01417 3.38533 2.74833 4.14783 2.6225 5.08949C2.5 6.00449 2.5 7.17366 2.5 8.64949V13.5145C2.5 14.7712 3.26667 15.8478 4.35583 16.2995C4.3 15.5412 4.3 14.4787 4.3 13.5937V9.41866C4.3 8.35116 4.3 7.43033 4.39833 6.69366C4.50417 5.90366 4.7425 5.14699 5.35417 4.53283C5.96583 3.91866 6.72 3.67949 7.50667 3.57283C8.24 3.47449 9.15667 3.47449 10.2208 3.47449H12.7792C13.8425 3.47449 14.7575 3.47449 15.4917 3.57283C15.2718 3.0114 14.8878 2.52927 14.3898 2.18931C13.8918 1.84935 13.303 1.66733 12.7 1.66699Z" fill="#DDDDDD"/>
<path d="M5.5 9.49788C5.5 7.22621 5.5 6.09038 6.20333 5.38454C6.90583 4.67871 8.03667 4.67871 10.3 4.67871H12.7C14.9625 4.67871 16.0942 4.67871 16.7975 5.38454C17.5008 6.09038 17.5 7.22621 17.5 9.49788V13.5145C17.5 15.7862 17.5 16.922 16.7975 17.6279C16.0942 18.3337 14.9625 18.3337 12.7 18.3337H10.3C8.0375 18.3337 6.90583 18.3337 6.20333 17.6279C5.5 16.922 5.5 15.7862 5.5 13.5145V9.49788Z" fill="#DDDDDD"/>
</svg>
