<svg width="24" height="24" viewBox="0 0 24 24" fill="none" xmlns="http://www.w3.org/2000/svg">
<path d="M8.99976 11.9998H14.9998V12.9998H8.99976V11.9998ZM8.99976 8.99976H14.9998V9.99976H8.99976V8.99976Z" fill="#696969"/>
<path d="M12 19.0001L8.91202 17.3536C8.03161 16.8853 7.29536 16.1861 6.78232 15.331C6.26929 14.4759 5.99883 13.4972 6 12.5V6C6 5.73479 6.10536 5.48043 6.2929 5.29289C6.48044 5.10536 6.73479 5 7.00001 5H17.0001C17.2653 5 17.5196 5.10536 17.7072 5.29289C17.8947 5.48043 18.0001 5.73479 18.0001 6V12.5C18.0012 13.4972 17.7308 14.4759 17.2177 15.331C16.7047 16.1861 15.9685 16.8853 15.088 17.3536L12 19.0001ZM7.00001 6V12.5C6.99945 13.3159 7.22095 14.1165 7.64075 14.8161C8.06055 15.5156 8.66283 16.0877 9.38302 16.4711L12 17.8666L14.617 16.4716C15.3373 16.0882 15.9396 15.516 16.3594 14.8163C16.7792 14.1167 17.0007 13.316 17.0001 12.5V6H7.00001Z" fill="#696969"/>
</svg>
