<svg width="24" height="24" viewBox="0 0 24 24" fill="none" xmlns="http://www.w3.org/2000/svg">
<path d="M12.058 11.5504C11.31 10.9974 10.189 10.0304 6.975 10.0304V16.9544C10.189 16.9544 11.31 17.9214 12.058 18.4744M12.058 11.5504V18.4744M12.058 11.5504C12.806 10.9974 13.927 10.0304 17.141 10.0304V16.9544C13.927 16.9544 12.806 17.9214 12.058 18.4744M14.044 5.57939V8.01139M15.821 5.52539H9.144C8.95745 5.52516 8.77456 5.57712 8.616 5.67539L6.859 6.76939L8.616 7.86139C8.77456 7.95966 8.95745 8.01162 9.144 8.01139H15.821C15.9871 8.0161 16.1525 7.98745 16.3074 7.92713C16.4623 7.86681 16.6035 7.77604 16.7226 7.6602C16.8418 7.54436 16.9365 7.40579 17.0012 7.2527C17.0659 7.0996 17.0993 6.93509 17.0993 6.76889C17.0993 6.60269 17.0659 6.43818 17.0012 6.28508C16.9365 6.13199 16.8418 5.99342 16.7226 5.87758C16.6035 5.76174 16.4623 5.67097 16.3074 5.61065C16.1525 5.55033 15.9871 5.52068 15.821 5.52539Z" stroke="#696969" stroke-linecap="round" stroke-linejoin="round"/>
</svg>
