<svg width="24" height="24" viewBox="0 0 24 24" fill="none" xmlns="http://www.w3.org/2000/svg">
<path d="M6.77343 5C6.29235 5.00191 5.8654 5.23139 5.54764 5.55678C5.22895 5.88216 5.00357 6.31823 5.00357 6.8106V14.1641C5.00357 14.333 4.98538 15.4537 5.0311 16.5129C5.0535 17.0425 5.0871 17.5597 5.15522 17.9743C5.23175 18.5678 5.48978 18.9161 5.8962 18.9924C6.27275 19.063 6.59518 18.6255 6.86395 18.3621C7.49667 17.657 8.01741 16.9633 8.60393 16.2424C8.71872 16.1059 8.81904 15.9933 8.88297 15.9328L17.2222 15.9786C18.1993 15.9843 19 15.1613 19 14.1651V6.81012C19 5.81393 18.1998 5 17.2255 5H6.77343ZM17.2241 5.95086C17.6977 5.95086 18.0649 6.32586 18.0649 6.81012V14.1641C18.0649 14.6484 17.6977 15.0263 17.2278 15.0234L8.76445 14.9776C8.53581 14.9738 8.40143 15.1212 8.24465 15.2343C7.45141 16.1222 6.75523 17.052 6.07864 17.8092C6.02358 17.4709 5.98252 16.9786 5.96106 16.4709C5.91813 15.4504 5.93353 14.3874 5.93353 14.1641V6.81012C5.93353 6.63693 6.03385 6.4084 6.20509 6.23283C6.37587 6.05725 6.60265 5.95277 6.77482 5.95086H17.2241ZM16.1975 8.81442C16.4556 8.81442 16.6642 8.60115 16.6651 8.33732C16.6651 8.07396 16.4565 7.86022 16.198 7.85974H7.79623C7.5382 7.85974 7.32916 8.073 7.32916 8.33684C7.32916 8.60067 7.53773 8.81394 7.79577 8.81442H16.1975ZM13.397 12.6322C13.655 12.6322 13.864 12.4189 13.864 12.1551C13.864 11.8912 13.6559 11.678 13.3974 11.6775H7.79623C7.5382 11.6775 7.32916 11.8908 7.32916 12.1546C7.32916 12.4184 7.53773 12.6317 7.79577 12.6322H13.397ZM7.79623 9.76862C7.5382 9.76862 7.32916 9.98188 7.32916 10.2457C7.32916 10.5096 7.53773 10.7228 7.79577 10.7233H16.1975C16.4556 10.7233 16.6642 10.51 16.6651 10.2462C16.6651 9.98283 16.4565 9.76909 16.198 9.76862H7.79623Z" fill="#696969"/>
</svg>
