<svg width="15" height="16" viewBox="0 0 15 16" fill="none" xmlns="http://www.w3.org/2000/svg">
<path fill-rule="evenodd" clip-rule="evenodd" d="M2.4359 4.94922V13.9236C2.4359 14.2092 2.54936 14.4831 2.75132 14.6851C2.95328 14.887 3.2272 15.0005 3.51282 15.0005H11.4103C11.6959 15.0005 11.9698 14.887 12.1718 14.6851C12.3737 14.4831 12.4872 14.2092 12.4872 13.9236V4.94922H2.4359Z" stroke="#EC3434"/>
<path d="M4.58974 7.03795V12.9108M7.46154 7.03795V12.9108M10.3333 7.03795V12.9108M4.94872 2.67497V1.89313C4.94872 1.3999 5.39887 1 5.95385 1H8.96923C9.52421 1 9.97436 1.3999 9.97436 1.89313V2.67569" stroke="#EC3434" stroke-linecap="round"/>
<path d="M12.8462 2.79492H2.07692C1.48215 2.79492 1 3.27708 1 3.87185C1 4.46661 1.48215 4.94877 2.07692 4.94877H12.8462C13.4409 4.94877 13.9231 4.46661 13.9231 3.87185C13.9231 3.27708 13.4409 2.79492 12.8462 2.79492Z" stroke="#EC3434"/>
</svg>
