<svg width="36" height="36" viewBox="0 0 36 36" fill="none" xmlns="http://www.w3.org/2000/svg">
<path d="M15.2856 26.7733V23.7156C15.2856 22.9351 15.8894 22.3023 16.6343 22.3023H19.3572C19.7149 22.3023 20.058 22.4512 20.3109 22.7162C20.5638 22.9813 20.7059 23.3408 20.7059 23.7156V26.7733C20.7037 27.0978 20.8251 27.4099 21.0433 27.6402C21.2615 27.8705 21.5584 28 21.868 28H23.7257C24.5933 28.0023 25.4262 27.6428 26.0405 27.0008C26.6548 26.3588 27 25.487 27 24.5778V15.8669C27 15.1325 26.6893 14.4358 26.1517 13.9647L19.8322 8.67587C18.7329 7.74856 17.1579 7.7785 16.0914 8.74698L9.91612 13.9647C9.35312 14.4219 9.01663 15.1206 9 15.8669V24.5689C9 26.4638 10.4659 28 12.2743 28H14.0895C14.7327 28 15.2555 27.4562 15.2601 26.7822L15.2856 26.7733Z" fill="#C9C9C9"/>
</svg>
