<svg width="40" height="42" viewBox="0 0 40 42" fill="none" xmlns="http://www.w3.org/2000/svg">
<path d="M34.5809 2.60542H31.6908V1.0678C31.6908 0.784599 31.5766 0.513001 31.3733 0.31275C31.1701 0.1125 30.8944 0 30.6069 0C30.3195 0 30.0438 0.1125 29.8406 0.31275C29.6373 0.513001 29.5231 0.784599 29.5231 1.0678V2.60542H10.5347V1.0678C10.4735 0.840065 10.3375 0.638673 10.148 0.49499C9.95852 0.351306 9.72611 0.273397 9.487 0.273397C9.24788 0.273397 9.01547 0.351306 8.82597 0.49499C8.63648 0.638673 8.50053 0.840065 8.43931 1.0678V2.60542H5.54913C4.82714 2.59028 4.10932 2.71709 3.43765 2.97844C2.76597 3.23978 2.15391 3.63042 1.63725 4.12752C1.12059 4.62461 0.70969 5.21819 0.428572 5.87356C0.147453 6.52892 0.00175711 7.23292 0 7.94441V36.661C0.00381424 38.0758 0.575976 39.4317 1.59142 40.4321C2.60687 41.4325 3.98302 41.9962 5.41907 42H34.5809C36.017 41.9962 37.3931 41.4325 38.4086 40.4321C39.424 39.4317 39.9962 38.0758 40 36.661V7.94441C39.9962 6.52958 39.424 5.17377 38.4086 4.17333C37.3931 3.17289 36.017 2.60918 34.5809 2.60542ZM10.6647 32.9166H8.43931C8.15186 32.9166 7.87619 32.8041 7.67293 32.6039C7.46968 32.4036 7.35549 32.132 7.35549 31.8488C7.35549 31.5656 7.46968 31.294 7.67293 31.0938C7.87619 30.8935 8.15186 30.781 8.43931 30.781H10.6069C10.8944 30.781 11.1701 30.8935 11.3733 31.0938C11.5766 31.294 11.6908 31.5656 11.6908 31.8488C11.6908 32.132 11.5766 32.4036 11.3733 32.6039C11.1701 32.8041 10.8944 32.9166 10.6069 32.9166H10.6647ZM10.6647 24.3742H8.43931C8.15186 24.3742 7.87619 24.2617 7.67293 24.0615C7.46968 23.8612 7.35549 23.5896 7.35549 23.3064C7.35549 23.0232 7.46968 22.7516 7.67293 22.5514C7.87619 22.3511 8.15186 22.2386 8.43931 22.2386H10.6069C10.8944 22.2386 11.1701 22.3511 11.3733 22.5514C11.5766 22.7516 11.6908 23.0232 11.6908 23.3064C11.6908 23.5896 11.5766 23.8612 11.3733 24.0615C11.1701 24.2617 10.8944 24.3742 10.6069 24.3742H10.6647ZM21.0838 32.9166H18.9162C18.6287 32.9166 18.3531 32.8041 18.1498 32.6039C17.9466 32.4036 17.8324 32.132 17.8324 31.8488C17.8324 31.5656 17.9466 31.294 18.1498 31.0938C18.3531 30.8935 18.6287 30.781 18.9162 30.781H21.0838C21.3713 30.781 21.6469 30.8935 21.8502 31.0938C22.0534 31.294 22.1676 31.5656 22.1676 31.8488C22.1676 32.132 22.0534 32.4036 21.8502 32.6039C21.6469 32.8041 21.3713 32.9166 21.0838 32.9166ZM21.0838 24.3742H18.9162C18.6287 24.3742 18.3531 24.2617 18.1498 24.0615C17.9466 23.8612 17.8324 23.5896 17.8324 23.3064C17.8324 23.0232 17.9466 22.7516 18.1498 22.5514C18.3531 22.3511 18.6287 22.2386 18.9162 22.2386H21.0838C21.3713 22.2386 21.6469 22.3511 21.8502 22.5514C22.0534 22.7516 22.1676 23.0232 22.1676 23.3064C22.1676 23.5896 22.0534 23.8612 21.8502 24.0615C21.6469 24.2617 21.3713 24.3742 21.0838 24.3742ZM31.5029 32.9166H29.3353C29.0478 32.9166 28.7721 32.8041 28.5689 32.6039C28.3656 32.4036 28.2514 32.132 28.2514 31.8488C28.2514 31.5656 28.3656 31.294 28.5689 31.0938C28.7721 30.8935 29.0478 30.781 29.3353 30.781H31.5607C31.8481 30.781 32.1238 30.8935 32.3271 31.0938C32.5303 31.294 32.6445 31.5656 32.6445 31.8488C32.6445 32.132 32.5303 32.4036 32.3271 32.6039C32.1238 32.8041 31.8481 32.9166 31.5607 32.9166H31.5029ZM31.5029 24.3742H29.3353C29.0478 24.3742 28.7721 24.2617 28.5689 24.0615C28.3656 23.8612 28.2514 23.5896 28.2514 23.3064C28.2514 23.0232 28.3656 22.7516 28.5689 22.5514C28.7721 22.3511 29.0478 22.2386 29.3353 22.2386H31.5607C31.8481 22.2386 32.1238 22.3511 32.3271 22.5514C32.5303 22.7516 32.6445 23.0232 32.6445 23.3064C32.6445 23.5896 32.5303 23.8612 32.3271 24.0615C32.1238 24.2617 31.8481 24.3742 31.5607 24.3742H31.5029ZM37.8324 13.1553H2.16763V7.94441C2.16763 7.09481 2.51019 6.28002 3.11996 5.67927C3.72972 5.07852 4.55674 4.74102 5.41907 4.74102H8.43931V6.26441C8.43931 6.5476 8.55349 6.8192 8.75675 7.01945C8.96 7.2197 9.23568 7.3322 9.52312 7.3322C9.81057 7.3322 10.0862 7.2197 10.2895 7.01945C10.4927 6.8192 10.6069 6.5476 10.6069 6.26441V4.74102H29.5376V6.26441C29.5376 6.5476 29.6518 6.8192 29.855 7.01945C30.0583 7.2197 30.3339 7.3322 30.6214 7.3322C30.9088 7.3322 31.1845 7.2197 31.3878 7.01945C31.591 6.8192 31.7052 6.5476 31.7052 6.26441V4.74102H34.5954C35.4577 4.74102 36.2847 5.07852 36.8945 5.67927C37.5043 6.28002 37.8468 7.09481 37.8468 7.94441L37.8324 13.1553Z" fill="#DCDCDC"/>
</svg>
