<svg width="18" height="20" viewBox="0 0 18 20" fill="none" xmlns="http://www.w3.org/2000/svg">
<path d="M2.17102 9.99904C2.17102 6.75705 4.56099 4.06869 7.67113 3.58472V4.99993L11.6699 2.49988L7.67037 0.000488281V1.56303C3.45275 2.06238 0.170105 5.65211 0.170105 9.99915C0.170105 13.0545 1.79495 15.7291 4.21864 17.2261L6.18011 16.002C3.82784 15.0213 2.17102 12.7015 2.17102 9.99904Z" fill="#0087EC"/>
<path d="M13.1212 2.77344L11.1599 3.99924C13.5131 4.97619 15.17 7.2966 15.17 9.99925C15.17 13.2439 12.7805 15.9305 9.6702 16.4151V14.9992L5.67078 17.5003L9.6702 19.9995V18.4345C13.8876 17.9368 17.1701 14.3475 17.1701 9.99925C17.1702 6.94513 15.5454 4.27072 13.1212 2.77344Z" fill="#0087EC"/>
<path d="M9.15228 14.3715V13.2792C10.3832 13.0646 11.0598 12.2506 11.0598 11.2971C11.0598 10.3327 10.5457 9.74418 9.2717 9.29295C8.36002 8.95005 7.98449 8.72537 7.98449 8.37192C7.98449 8.07165 8.20917 7.7716 8.90683 7.7716C9.67756 7.7716 10.1699 8.01716 10.4495 8.13626L10.7592 6.92518C10.4073 6.75411 9.92399 6.60447 9.20666 6.57272V5.62939H8.1561V6.64688C7.01128 6.87112 6.34624 7.6112 6.34624 8.55365C6.34624 9.59278 7.12883 10.1296 8.27641 10.5144C9.0679 10.7825 9.41058 11.0397 9.41058 11.4475C9.41058 11.8755 8.99352 12.1112 8.38287 12.1112C7.68674 12.1112 7.05423 11.8862 6.60487 11.6398L6.28351 12.8935C6.68925 13.1295 7.38669 13.3219 8.10391 13.3538V14.3716L9.15228 14.3715Z" fill="#0087EC"/>
</svg>
