<svg width="16" height="18" viewBox="0 0 16 18" fill="none" xmlns="http://www.w3.org/2000/svg">
<path d="M14.7302 6.50333C14.7302 7.25268 14.0641 7.86327 13.2592 7.86327C13.2315 8.02979 13.1205 8.1408 12.954 8.22407V8.36284C12.954 8.52936 12.9262 8.69588 12.8429 8.83465C12.0381 10.3611 11.5385 10.6387 10.012 11.1105C9.73451 11.1937 9.42921 11.2492 9.15168 11.3047C8.9574 11.9431 7.93051 11.8043 7.93051 11.166C7.93051 10.6387 8.62435 10.3889 9.01291 10.7774C9.42921 10.6664 9.84552 10.6109 10.2341 10.4999C11.4275 10.1113 11.4552 10.0003 12.2324 8.77914C12.3156 8.66813 12.3434 8.52936 12.3434 8.39059V8.16856C12.1768 8.05754 12.0658 7.91877 12.0658 7.7245C12.0658 5.30991 11.9271 5.08788 12.2879 4.81034C12.1213 3.92222 11.6218 3.0896 11.0112 2.53452C10.4561 2.0072 9.79001 1.6464 9.12392 1.45212C7.37543 1.06357 5.79346 1.59089 4.87758 2.47902C4.267 3.03409 3.82293 3.94997 3.65641 4.81034C3.79518 4.92136 3.87844 5.06013 3.87844 5.22665V7.69674C3.87844 8.00204 3.6009 8.25182 3.26786 8.25182C2.99032 8.25182 2.76829 8.0853 2.71278 7.83551C1.90792 7.80776 1.24182 7.22493 1.24182 6.47557C1.24182 5.72622 1.90792 5.11563 2.71278 5.11563C2.74053 4.97686 2.85155 4.8381 2.99032 4.78259C2.68503 1.42437 7.43094 -1.18449 10.9002 1.00806C11.2887 1.25785 11.6495 1.56314 11.9271 1.86843C12.2046 2.17373 12.4266 2.50677 12.5932 2.81206C12.7597 3.11736 12.8429 3.42265 12.9262 3.70019C13.0095 4.03323 13.0372 4.42179 13.0095 4.75483C13.1482 4.8381 13.2592 4.94911 13.287 5.08788C14.0919 5.14339 14.7302 5.75397 14.7302 6.50333ZM6.59832 12.0541C6.071 11.3325 5.82121 11.1937 4.9886 11.4713C4.01721 11.8043 3.01807 12.1651 2.07444 12.5537C1.24182 12.9145 0.742255 13.5528 0.797763 14.5242C0.825517 14.9683 0.797763 15.4123 0.797763 15.8564C0.797763 17.2163 1.38059 17.7991 2.74053 17.7991H13.3425C14.6192 17.7991 15.202 17.1886 15.202 15.9119C15.202 15.4401 15.1743 14.996 15.202 14.5242C15.2575 13.5806 14.7857 12.9422 13.9808 12.5814C13.0372 12.1651 12.0658 11.8043 11.0944 11.4713C10.3173 11.2215 9.84552 11.4435 9.34595 12.1374C8.92964 12.7202 8.51334 13.3308 8.01377 13.9969C7.5142 13.303 7.04238 12.6647 6.59832 12.0541ZM10.5671 3.06185C9.26269 2.0072 7.81949 2.06271 6.32078 2.56228C5.32164 2.89533 4.71106 3.67243 4.60004 4.64382C4.37801 6.50333 4.82207 8.25182 6.20977 9.61176C7.20891 10.5831 8.79088 10.5831 9.81777 9.61176C11.0389 8.47385 11.3997 7.0029 11.483 5.86499C11.5108 4.5328 11.3165 3.67243 10.5671 3.06185Z" fill="white"/>
</svg>
