<?xml version="1.0" encoding="UTF-8"?>
<svg version="1.1" xmlns="http://www.w3.org/2000/svg" width="512" height="512">
<path d="M0 0 C1.74410156 0.57814453 1.74410156 0.57814453 3.5234375 1.16796875 C15.72931126 5.56379042 25.87442911 11.95658876 36 20 C36.70898438 20.54140625 37.41796875 21.0828125 38.1484375 21.640625 C54.01668402 34.46475892 67.54840515 57.04634217 70.32556152 77.38417053 C70.40568481 78.17013107 70.48580811 78.95609161 70.56835938 79.76586914 C70.65130249 80.56279678 70.73424561 81.35972443 70.81970215 82.18080139 C70.87920044 82.78113693 70.93869873 83.38147247 71 84 C72.11971191 83.98428955 73.23942383 83.9685791 74.39306641 83.95239258 C78.56389111 83.89792106 82.73468462 83.86358748 86.90576172 83.83520508 C88.70789892 83.8201576 90.50999973 83.7997147 92.31201172 83.77368164 C94.90862021 83.73711979 97.50474275 83.72023319 100.1015625 83.70703125 C101.30191635 83.68380547 101.30191635 83.68380547 102.52651978 83.66011047 C107.43405082 83.65864795 110.74075961 84.298303 115 87 C119.67177343 92.17683002 120.3478341 95.39353498 120.28515625 102.234375 C119.7889048 107.0473343 117.46185415 109.71534029 113.9375 112.8125 C109.59859399 115.47182949 105.30321003 115.12871482 100.39453125 115.09765625 C99.55532639 115.0962413 98.71612152 115.09482635 97.85148621 115.09336853 C95.17178784 115.08777215 92.4921731 115.07522035 89.8125 115.0625 C87.99544392 115.05748453 86.17838652 115.05292171 84.36132812 115.04882812 C79.90751987 115.03780391 75.45377411 115.02054178 71 115 C70.94050171 115.60033554 70.88100342 116.20067108 70.81970215 116.81919861 C70.73675903 117.61612625 70.65381592 118.41305389 70.56835938 119.23413086 C70.44817444 120.41307167 70.44817444 120.41307167 70.32556152 121.61582947 C69.80778104 125.40766876 68.72079641 128.94460632 67.5 132.5625 C67.24009277 133.33335937 66.98018555 134.10421875 66.71240234 134.8984375 C62.37924504 147.13441261 55.75300754 158.40332908 47 168 C46.5467334 168.50096191 46.0934668 169.00192383 45.62646484 169.51806641 C28.3842756 188.34262634 4.33336862 201.89804445 -21.63647461 203.12451172 C-51.66994691 203.92394778 -76.84016562 197.80333664 -100 178 C-100.88171875 177.33484375 -100.88171875 177.33484375 -101.78125 176.65625 C-118.82469914 163.47169501 -129.51203275 140.59431701 -134 120 C-134.03177703 118.33363629 -134.03851495 116.66622159 -134 115 C-135.26744112 115.00276538 -136.53488224 115.00553076 -137.84073067 115.00837994 C-167.92468508 115.07334821 -198.00862141 115.1228189 -228.09262878 115.15319599 C-231.79515108 115.15694813 -235.49767323 115.16083109 -239.20019531 115.16479492 C-240.30585729 115.16597532 -240.30585729 115.16597532 -241.43385588 115.16717956 C-253.3702666 115.18023481 -265.30663399 115.20388931 -277.243019 115.23145839 C-289.49011967 115.25950928 -301.73719763 115.27617559 -313.9843291 115.28226548 C-321.54196449 115.28638259 -329.0994774 115.29938787 -336.65707509 115.3237494 C-342.45146813 115.34147631 -348.24578263 115.34336641 -354.04019737 115.33932304 C-356.41781939 115.34014957 -358.79544596 115.3461327 -361.17304039 115.35761642 C-364.41599772 115.37251383 -367.65842851 115.36896331 -370.90139771 115.36076355 C-371.84498489 115.36950207 -372.78857207 115.3782406 -373.7607528 115.38724393 C-378.92899743 115.35185578 -382.53868732 114.90680948 -387 112 C-391.67177343 106.82316998 -392.3478341 103.60646502 -392.28515625 96.765625 C-391.7889048 91.9526657 -389.46185415 89.28465971 -385.9375 86.1875 C-382.85015093 84.2952538 -380.31159603 83.87515885 -376.77336597 83.87695217 C-375.90699412 83.87496112 -375.04062227 83.87297007 -374.14799672 83.87091869 C-373.19567102 83.87383153 -372.24334531 83.87674437 -371.26216125 83.87974548 C-370.25096055 83.87889106 -369.23975984 83.87803663 -368.19791669 83.87715632 C-364.79379193 83.8755031 -361.38971595 83.88102035 -357.9855957 83.88647461 C-355.55168662 83.88675654 -353.11777745 83.88659863 -350.68386841 83.8860321 C-345.43571306 83.88580404 -340.18756884 83.88864901 -334.93941689 83.89426994 C-327.35143897 83.90239162 -319.76346707 83.90500085 -312.17548528 83.90625793 C-299.86495227 83.9084474 -287.55442589 83.91510464 -275.24389648 83.92456055 C-263.28426141 83.93373738 -251.32462812 83.94081689 -239.36499023 83.94506836 C-238.6279905 83.94533108 -237.89099076 83.94559381 -237.1316577 83.94586449 C-233.43440401 83.94716951 -229.73715031 83.94843323 -226.03989661 83.94967639 C-195.35992633 83.96004573 -164.67996408 83.97773545 -134 84 C-133.91136436 83.10010849 -133.91136436 83.10010849 -133.82093811 82.18203735 C-133.73831223 81.38542694 -133.65568634 80.58881653 -133.57055664 79.76806641 C-133.45098351 78.5897374 -133.45098351 78.5897374 -133.32899475 77.38760376 C-132.80287649 73.56942147 -131.67832544 70.0141071 -130.4375 66.375 C-130.17501465 65.6015625 -129.9125293 64.828125 -129.64208984 64.03125 C-125.40109055 52.01959791 -119.4198804 41.60132607 -111 32 C-110.40960938 31.26652344 -109.81921875 30.53304687 -109.2109375 29.77734375 C-83.8027669 -0.87464078 -37.3599219 -12.49400438 0 0 Z M-85 50 C-85.66515625 50.64453125 -86.3303125 51.2890625 -87.015625 51.953125 C-100.29777774 65.71391387 -104.63674518 84.19494197 -104.3984375 102.72485352 C-103.88322594 119.6246326 -97.43927992 135.40944351 -86 148 C-85.34644531 148.74507813 -84.69289063 149.49015625 -84.01953125 150.2578125 C-72.15048741 163.01325124 -54.56406646 171.53228436 -37.0546875 172.3359375 C-15.9531581 172.70557279 2.03740688 167.3490458 18 153 C18.61101562 152.48179687 19.22203125 151.96359375 19.8515625 151.4296875 C31.74646991 140.62107301 39.78159694 123.45616693 41.22143555 107.55444336 C42.18969722 86.41578402 37.42943634 67.08972713 23 51 C22.32195312 50.24074219 21.64390625 49.48148437 20.9453125 48.69921875 C9.0420316 36.09699075 -7.91880695 27.40605812 -25.3828125 26.6640625 C-49.58892467 26.27904135 -68.03803813 32.62683905 -85 50 Z " fill="#000000" transform="translate(392,261)"/>
<path d="M0 0 C0.70898438 0.54140625 1.41796875 1.0828125 2.1484375 1.640625 C19.34933455 15.54175813 30.36480583 37.73009032 35 59 C35.03177703 60.66636371 35.03851495 62.33377841 35 64 C36.26744112 63.99723462 37.53488224 63.99446924 38.84073067 63.99162006 C68.92468508 63.92665179 99.00862141 63.8771811 129.09262878 63.84680401 C132.79515108 63.84305187 136.49767323 63.83916891 140.20019531 63.83520508 C141.30585729 63.83402468 141.30585729 63.83402468 142.43385588 63.83282044 C154.3702666 63.81976519 166.30663399 63.79611069 178.243019 63.76854161 C190.49011967 63.74049072 202.73719763 63.72382441 214.9843291 63.71773452 C222.54196449 63.71361741 230.0994774 63.70061213 237.65707509 63.6762506 C243.45146813 63.65852369 249.24578263 63.65663359 255.04019737 63.66067696 C257.41781939 63.65985043 259.79544596 63.6538673 262.17304039 63.64238358 C265.41599772 63.62748617 268.65842851 63.63103669 271.90139771 63.63923645 C273.31677848 63.62612866 273.31677848 63.62612866 274.7607528 63.61275607 C279.92899743 63.64814422 283.53868732 64.09319052 288 67 C292.67177343 72.17683002 293.3478341 75.39353498 293.28515625 82.234375 C292.7889048 87.0473343 290.46185415 89.71534029 286.9375 92.8125 C283.85015093 94.7047462 281.31159603 95.12484115 277.77336597 95.12304783 C276.90699412 95.12503888 276.04062227 95.12702993 275.14799672 95.12908131 C274.19567102 95.12616847 273.24334531 95.12325563 272.26216125 95.12025452 C270.74536019 95.12153615 270.74536019 95.12153615 269.19791669 95.12284368 C265.79379193 95.1244969 262.38971595 95.11897965 258.9855957 95.11352539 C256.55168662 95.11324346 254.11777745 95.11340137 251.68386841 95.1139679 C246.43571306 95.11419596 241.18756884 95.11135099 235.93941689 95.10573006 C228.35143897 95.09760838 220.76346707 95.09499915 213.17548528 95.09374207 C200.86495227 95.0915526 188.55442589 95.08489536 176.24389648 95.07543945 C164.28426141 95.06626262 152.32462812 95.05918311 140.36499023 95.05493164 C139.6279905 95.05466892 138.89099076 95.05440619 138.1316577 95.05413551 C134.43440401 95.05283049 130.73715031 95.05156677 127.03989661 95.05032361 C96.35992633 95.03995427 65.67996408 95.02226455 35 95 C34.94090958 95.59992767 34.88181915 96.19985535 34.82093811 96.81796265 C34.73831223 97.61457306 34.65568634 98.41118347 34.57055664 99.23193359 C34.45098351 100.4102626 34.45098351 100.4102626 34.32899475 101.61239624 C33.80287649 105.43057853 32.67832544 108.9858929 31.4375 112.625 C31.04377197 113.78515625 31.04377197 113.78515625 30.64208984 114.96875 C26.40109055 126.98040209 20.4198804 137.39867393 12 147 C11.40960938 147.73347656 10.81921875 148.46695313 10.2109375 149.22265625 C-5.38439769 168.03660317 -29.02646856 179.57896917 -53 183 C-84.54853125 184.68695055 -110.06362101 178.80861655 -135 159 C-135.70898438 158.45859375 -136.41796875 157.9171875 -137.1484375 157.359375 C-153.01668402 144.53524108 -166.54840515 121.95365783 -169.32556152 101.61582947 C-169.44574646 100.43688866 -169.44574646 100.43688866 -169.56835938 99.23413086 C-169.65130249 98.43720322 -169.73424561 97.64027557 -169.81970215 96.81919861 C-169.87920044 96.21886307 -169.93869873 95.61852753 -170 95 C-171.11971191 95.01571045 -172.23942383 95.0314209 -173.39306641 95.04760742 C-177.56389111 95.10207894 -181.73468462 95.13641252 -185.90576172 95.16479492 C-187.70789892 95.1798424 -189.50999973 95.2002853 -191.31201172 95.22631836 C-193.90862021 95.26288021 -196.50474275 95.27976681 -199.1015625 95.29296875 C-200.30191635 95.31619453 -200.30191635 95.31619453 -201.52651978 95.33988953 C-206.43405082 95.34135205 -209.74075961 94.701697 -214 92 C-218.67177343 86.82316998 -219.3478341 83.60646502 -219.28515625 76.765625 C-218.7889048 71.9526657 -216.46185415 69.28465971 -212.9375 66.1875 C-208.59859399 63.52817051 -204.30321003 63.87128518 -199.39453125 63.90234375 C-198.55532639 63.9037587 -197.71612152 63.90517365 -196.85148621 63.90663147 C-194.17178784 63.91222785 -191.4921731 63.92477965 -188.8125 63.9375 C-186.99544392 63.94251547 -185.17838652 63.94707829 -183.36132812 63.95117188 C-178.90751987 63.96219609 -174.45377411 63.97945822 -170 64 C-169.94050171 63.39966446 -169.88100342 62.79932892 -169.81970215 62.18080139 C-169.73675903 61.38387375 -169.65381592 60.58694611 -169.56835938 59.76586914 C-169.48823608 58.9799086 -169.40811279 58.19394806 -169.32556152 57.38417053 C-168.80778104 53.59233124 -167.72079641 50.05539368 -166.5 46.4375 C-166.24009277 45.66664062 -165.98018555 44.89578125 -165.71240234 44.1015625 C-161.37924504 31.86558739 -154.75300754 20.59667092 -146 11 C-145.5467334 10.49903809 -145.0934668 9.99807617 -144.62646484 9.48193359 C-106.40365009 -32.24871077 -43.69695653 -34.71138519 0 0 Z M-117 26 C-117.91652344 26.77730469 -117.91652344 26.77730469 -118.8515625 27.5703125 C-130.74646991 38.37892699 -138.78159694 55.54383307 -140.22143555 71.44555664 C-141.19050152 92.60177528 -136.41694621 111.88694247 -122 128 C-121.34515625 128.74765625 -120.6903125 129.4953125 -120.015625 130.265625 C-108.24706995 142.89319866 -90.98357094 151.61079533 -73.6171875 152.3359375 C-52.23716463 152.67600702 -33.72560741 148.20088287 -18.00415039 133.05932617 C-16.65675043 131.7188466 -15.32775387 130.35994184 -14 129 C-13.33484375 128.35546875 -12.6696875 127.7109375 -11.984375 127.046875 C1.29777774 113.28608613 5.63674518 94.80505803 5.3984375 76.27514648 C4.88322594 59.3753674 -1.56072008 43.59055649 -13 31 C-13.65355469 30.25492188 -14.30710937 29.50984375 -14.98046875 28.7421875 C-26.84951259 15.98674876 -44.43593354 7.46771564 -61.9453125 6.6640625 C-83.0468419 6.29442721 -101.03740688 11.6509542 -117 26 Z " fill="#000000" transform="translate(219,72)"/>
</svg>
