<svg width="14" height="14" viewBox="0 0 14 14" fill="none" xmlns="http://www.w3.org/2000/svg">
<path d="M6.99984 12.8333C7.76602 12.8342 8.52484 12.6838 9.2327 12.3906C9.94056 12.0974 10.5835 11.6672 11.1246 11.1247C11.667 10.5836 12.0972 9.94068 12.3904 9.23282C12.6837 8.52496 12.8341 7.76615 12.8332 6.99996C12.8341 6.23378 12.6837 5.47496 12.3904 4.76711C12.0972 4.05925 11.667 3.41631 11.1246 2.87521C10.5835 2.33276 9.94056 1.90257 9.2327 1.60936C8.52484 1.31614 7.76602 1.16569 6.99984 1.16663C6.23366 1.16569 5.47484 1.31614 4.76698 1.60936C4.05913 1.90257 3.41618 2.33276 2.87509 2.87521C2.33264 3.41631 1.90245 4.05925 1.60923 4.76711C1.31602 5.47496 1.16556 6.23378 1.16651 6.99996C1.16556 7.76615 1.31602 8.52496 1.60923 9.23282C1.90245 9.94068 2.33264 10.5836 2.87509 11.1247C3.41618 11.6672 4.05913 12.0974 4.76698 12.3906C5.47484 12.6838 6.23366 12.8342 6.99984 12.8333Z" stroke="#0087EC" stroke-linejoin="round"/>
<path d="M7.16172 10.2245C7.11874 10.2674 7.06045 10.2916 6.99967 10.2916C6.93889 10.2916 6.88061 10.2674 6.83763 10.2245C6.79465 10.1815 6.77051 10.1232 6.77051 10.0624C6.77051 10.0016 6.79465 9.94335 6.83763 9.90037C6.88061 9.8574 6.93889 9.83325 6.99967 9.83325C7.06045 9.83325 7.11874 9.8574 7.16172 9.90037L7.51527 9.54682L7.16172 9.90037C7.2047 9.94335 7.22884 10.0016 7.22884 10.0624C7.22884 10.1232 7.2047 10.1815 7.16172 10.2245Z" fill="black" stroke="#0087EC"/>
<path d="M7 3.5V8.16667" stroke="#0087EC" stroke-linecap="round" stroke-linejoin="round"/>
</svg>
