<svg width="24" height="24" viewBox="0 0 24 24" fill="none" xmlns="http://www.w3.org/2000/svg">
<path d="M15.3333 8.88889H14.0833L14.0833 15.7778C15.6917 15.7778 17 17.1733 17 18.8889C17 20.6044 15.6917 22 14.0833 22H9.91667C8.30833 22 7 20.6044 7 18.8889C7 17.1733 8.30833 15.7778 9.91667 15.7778L9.91667 4.22222C9.91667 2.99778 10.8521 2 12 2C13.1479 2 14.0833 2.99778 14.0833 4.22222V4.44444H15.3333C15.7937 4.44444 16.1667 4.84222 16.1667 5.33333L16.1667 8C16.1667 8.49111 15.7937 8.88889 15.3333 8.88889ZM7.83333 18.8889C7.83333 20.1133 8.76875 21.1111 9.91667 21.1111H14.0833C15.2312 21.1111 16.1667 20.1133 16.1667 18.8889C16.1667 17.6644 15.2312 16.6667 14.0833 16.6667H9.91667C8.76875 16.6667 7.83333 17.6644 7.83333 18.8889ZM15.3333 5.33333H13.6667C13.4375 5.33333 13.25 5.13333 13.25 4.88889V4.22222C13.25 3.48667 12.6896 2.88889 12 2.88889C11.3104 2.88889 10.75 3.48667 10.75 4.22222L10.75 15.7778H13.25L13.25 7.11111C13.25 6.86667 13.4375 6.66667 13.6667 6.66667C13.8958 6.66667 14.0833 6.86667 14.0833 7.11111V8H15.3333L15.3333 5.33333Z" fill="#696969"/>
</svg>
