<svg width="24" height="24" viewBox="0 0 24 24" fill="none" xmlns="http://www.w3.org/2000/svg">
<path fill-rule="evenodd" clip-rule="evenodd" d="M12 11.55C13.9882 11.55 15.6 9.93818 15.6 7.94995C15.6 5.96173 13.9882 4.34995 12 4.34995C10.0118 4.34995 8.4 5.96173 8.4 7.94995C8.4 9.93818 10.0118 11.55 12 11.55ZM12 12.45C14.4853 12.45 16.5 10.4352 16.5 7.94995C16.5 5.46467 14.4853 3.44995 12 3.44995C9.51472 3.44995 7.5 5.46467 7.5 7.94995C7.5 10.4352 9.51472 12.45 12 12.45ZM12 19.65C12.4971 19.65 12.9 19.247 12.9 18.75C12.9 18.2529 12.4971 17.85 12 17.85C11.5029 17.85 11.1 18.2529 11.1 18.75C11.1 19.247 11.5029 19.65 12 19.65ZM12 20.55C12.9941 20.55 13.8 19.7441 13.8 18.75C13.8 17.7558 12.9941 16.95 12 16.95C11.0059 16.95 10.2 17.7558 10.2 18.75C10.2 19.7441 11.0059 20.55 12 20.55ZM17.4 16.95C17.8971 16.95 18.3 16.547 18.3 16.05C18.3 15.5529 17.8971 15.15 17.4 15.15C16.9029 15.15 16.5 15.5529 16.5 16.05C16.5 16.547 16.9029 16.95 17.4 16.95ZM17.4 17.85C18.3941 17.85 19.2 17.0441 19.2 16.05C19.2 15.0558 18.3941 14.25 17.4 14.25C16.4059 14.25 15.6 15.0558 15.6 16.05C15.6 17.0441 16.4059 17.85 17.4 17.85ZM6.6 16.95C6.10295 16.95 5.7 16.547 5.7 16.05C5.7 15.5529 6.10295 15.15 6.6 15.15C7.09705 15.15 7.5 15.5529 7.5 16.05C7.5 16.547 7.09705 16.95 6.6 16.95ZM6.6 17.85C5.60589 17.85 4.8 17.0441 4.8 16.05C4.8 15.0558 5.60589 14.25 6.6 14.25C7.59411 14.25 8.4 15.0558 8.4 16.05C8.4 17.0441 7.59411 17.85 6.6 17.85Z" fill="#696969"/>
<path fill-rule="evenodd" clip-rule="evenodd" d="M12 11.5491C12.2485 11.5491 12.45 11.7506 12.45 11.9991V17.3991C12.45 17.6475 12.2485 17.8491 12 17.8491C11.7515 17.8491 11.55 17.6475 11.55 17.3991V11.9991C11.55 11.7506 11.7515 11.5491 12 11.5491ZM14.8431 10.929L17.3316 14.9106L16.5684 15.3876L14.0799 11.406L14.8431 10.929ZM9.15691 10.929L6.66841 14.9106L7.43161 15.3876L9.92011 11.406L9.15691 10.929Z" fill="#696969"/>
</svg>
