<svg width="24" height="24" viewBox="0 0 24 24" fill="none" xmlns="http://www.w3.org/2000/svg">
<path d="M5 11.9999C5 9.3602 5 8.04 5.8204 7.2203C6.6408 6.4006 7.9603 6.3999 10.6 6.3999H13.4C16.0397 6.3999 17.3599 6.3999 18.1796 7.2203C18.9993 8.0407 19 9.3602 19 11.9999C19 14.6396 19 15.9598 18.1796 16.7795C17.3592 17.5992 16.0397 17.5999 13.4 17.5999H10.6C7.9603 17.5999 6.6401 17.5999 5.8204 16.7795C5.0007 15.9591 5 14.6396 5 11.9999Z" stroke="#696969"/>
<path d="M10.6 14.8001H7.8M13.4 14.8001H12.35M5 10.6001H19" stroke="#696969" stroke-linecap="round"/>
</svg>
