<svg width="15" height="14" viewBox="0 0 15 14" fill="none" xmlns="http://www.w3.org/2000/svg">
<path d="M14.4816 6.3V11.6667C14.4816 12.2855 14.2361 12.879 13.7991 13.3166C13.3621 13.7542 12.7694 14 12.1514 14H2.83027C2.21225 14 1.61953 13.7542 1.18252 13.3166C0.74551 12.879 0.5 12.2855 0.5 11.6667V2.33333C0.5 1.71449 0.74551 1.121 1.18252 0.683417C1.61953 0.245833 2.21225 0 2.83027 0H8.1899C8.34441 0 8.49259 0.0614583 8.60184 0.170854C8.71109 0.280251 8.77247 0.428624 8.77247 0.583333C8.77247 0.738043 8.71109 0.886416 8.60184 0.995812C8.49259 1.10521 8.34441 1.16667 8.1899 1.16667H2.83027C2.52126 1.16667 2.2249 1.28958 2.0064 1.50838C1.78789 1.72717 1.66514 2.02391 1.66514 2.33333V11.6667C1.66514 11.9761 1.78789 12.2728 2.0064 12.4916C2.2249 12.7104 2.52126 12.8333 2.83027 12.8333H12.1514C12.4604 12.8333 12.7567 12.7104 12.9752 12.4916C13.1937 12.2728 13.3165 11.9761 13.3165 11.6667V6.3C13.3165 6.14529 13.3779 5.99692 13.4871 5.88752C13.5964 5.77812 13.7446 5.71667 13.8991 5.71667C14.0536 5.71667 14.2018 5.77812 14.311 5.88752C14.4203 5.99692 14.4816 6.14529 14.4816 6.3ZM5.74312 5.51833L10.8056 0.455C11.0989 0.171641 11.4904 0.0132855 11.898 0.0132855C12.3055 0.0132855 12.6971 0.171641 12.9903 0.455L14.0447 1.51083C14.189 1.65401 14.3035 1.82438 14.3816 2.01211C14.4598 2.19983 14.5 2.4012 14.5 2.60458C14.5 2.80797 14.4598 3.00933 14.3816 3.19706C14.3035 3.38479 14.189 3.55516 14.0447 3.69833L13.165 4.585L8.97054 8.75C8.75397 8.96661 8.4969 9.13838 8.21402 9.25549C7.93114 9.37259 7.62798 9.43274 7.32188 9.4325H7.27527L5.6499 9.3975C5.4954 9.3975 5.34722 9.33604 5.23797 9.22665C5.12871 9.11725 5.06734 8.96888 5.06734 8.81417L5.03238 7.18667C5.03557 6.87546 5.09998 6.56794 5.22193 6.28167C5.34388 5.99541 5.52098 5.73602 5.74312 5.51833ZM11.1377 1.75L12.2621 2.87583C12.3238 2.93827 12.3973 2.98783 12.4783 3.02165C12.5593 3.05548 12.6462 3.07289 12.7339 3.07289C12.8217 3.07289 12.9086 3.05548 12.9896 3.02165C13.0706 2.98783 13.1441 2.93827 13.2058 2.87583C13.2759 2.80299 13.3151 2.70576 13.3151 2.60458C13.3151 2.50341 13.2759 2.40617 13.2058 2.33333L12.1514 1.2775C12.0786 1.20728 11.9815 1.16805 11.8805 1.16805C11.7794 1.16805 11.6823 1.20728 11.6096 1.2775L11.1377 1.75ZM6.20917 7.1925V8.26H7.27527C7.59074 8.25919 7.89358 8.1358 8.11999 7.91583L11.062 4.99917C11.1703 4.89081 11.2562 4.76214 11.3149 4.62051C11.3735 4.47888 11.4037 4.32707 11.4037 4.17375C11.4037 4.02043 11.3735 3.86862 11.3149 3.72699C11.2562 3.58536 11.1703 3.45669 11.062 3.34833L10.3163 2.57833L6.55289 6.34083C6.44102 6.45212 6.35288 6.58498 6.2938 6.73137C6.23471 6.87776 6.20592 7.03464 6.20917 7.1925Z" fill="#0087EC"/>
</svg>
