<svg width="40" height="40" viewBox="0 0 40 40" fill="none" xmlns="http://www.w3.org/2000/svg">
<rect width="40" height="40" rx="5" fill="#F5F5F5"/>
<path d="M27.2222 9H12.7778C11.2442 9.00141 10.0014 10.2318 10 11.75V24.95C10.0014 26.4682 11.2442 27.6986 12.7778 27.7H16.4367L19.6072 30.8389C19.7112 30.9422 19.8526 31.0002 20 31C20.1474 31.0001 20.2887 30.9422 20.3928 30.8389L23.5633 27.7H27.2222C28.7558 27.6986 29.9986 26.4682 30 24.95V11.75C29.9986 10.2318 28.7558 9.00141 27.2222 9ZM28.8889 24.95C28.8879 25.8609 28.1423 26.599 27.2222 26.6H23.3333C23.186 26.6 23.0447 26.6579 22.9405 26.7611L20 29.6723L17.0595 26.7611C16.9553 26.6579 16.814 26.6 16.6667 26.6H12.7778C11.8577 26.599 11.1121 25.8609 11.1111 24.95V11.75C11.1121 10.8391 11.8577 10.101 12.7778 10.1H27.2222C28.1423 10.101 28.8879 10.8391 28.8889 11.75V24.95ZM22.0361 19.2937C22.8192 18.6899 23.3322 17.7586 23.3333 16.7C23.3333 14.8775 21.841 13.4 20 13.4C18.159 13.4 16.6667 14.8775 16.6667 16.7C16.6667 17.765 17.1849 18.702 17.9759 19.3054C16.5363 19.8698 15.3343 21.0047 14.783 22.5652L14.7826 22.5664C14.6799 22.8521 14.8307 23.1662 15.1194 23.2678C15.1246 23.2697 15.1298 23.2716 15.135 23.2733C15.4211 23.3696 15.7318 23.218 15.829 22.9348C16.2725 21.6736 17.2739 20.6822 18.5478 20.2431C20.8514 19.4491 23.369 20.6543 24.171 22.9348C24.2497 23.1539 24.4592 23.3002 24.694 23.3C24.7577 23.3003 24.8208 23.2894 24.8806 23.2678L24.8817 23.2674C25.1702 23.1652 25.3203 22.8508 25.217 22.5652C24.6869 21.0648 23.5215 19.8777 22.0361 19.2937ZM20 18.9C18.7727 18.9 17.7778 17.915 17.7778 16.7C17.7778 15.485 18.7727 14.5 20 14.5C21.2267 14.5015 22.2207 15.4856 22.2222 16.7C22.2222 17.915 21.2273 18.9 20 18.9Z" fill="#0087EC"/>
</svg>
