<svg width="36" height="36" viewBox="0 0 36 36" fill="none" xmlns="http://www.w3.org/2000/svg">
<path d="M26.1364 25.8182V11.5455C26.1364 9.81823 24.7727 8.45459 23.0454 8.45459H22.8636C22.8636 10.3637 21.3182 11.8182 19.5 11.8182H16.5C14.5909 11.8182 13.1364 10.2728 13.1364 8.45459H12.9545C11.2273 8.45459 9.86362 9.81823 9.86362 11.5455V25.9091C9.86362 27.6364 11.2273 29 12.9545 29H23.1364C24.7727 28.9091 26.1364 27.5455 26.1364 25.8182ZM17.8636 25.6364C14.9545 25.6364 12.6818 23.2728 12.6818 20.4546C12.6818 17.5455 15.0454 15.2728 17.8636 15.2728C20.7727 15.2728 23.0454 17.6364 23.0454 20.4546C23.0454 23.3637 20.6818 25.6364 17.8636 25.6364Z" fill="#C9C9C9"/>
<path d="M19.5909 10.0909C20.5 10.0909 21.1363 9.36364 21.1363 8.54545C21.1363 7.72727 20.4091 7 19.5909 7H16.5909C15.6818 7 15.0454 7.72727 15.0454 8.54545C15.0454 9.36364 15.7727 10.0909 16.5909 10.0909H19.5909Z" fill="#C9C9C9"/>
<path d="M19.7727 18.8182L16.9546 20.5455L16.3182 19.5455C16.0455 19.0909 15.5 19 15.0455 19.2727C14.5909 19.5455 14.5 20.0909 14.7727 20.5455L15.6818 22C16.0455 22.5455 16.8637 22.8182 17.4091 22.3637L20.5909 20.3637C21.0455 20.0909 21.1364 19.5455 20.8636 19.0909C20.7727 18.6364 20.2273 18.5455 19.7727 18.8182Z" fill="#C9C9C9"/>
</svg>
