<svg width="36" height="36" viewBox="0 0 36 36" fill="none" xmlns="http://www.w3.org/2000/svg">
<path d="M27.6873 14.9441C27.2594 14.8819 26.851 14.724 26.4926 14.4822C26.1342 14.2403 25.8349 13.9207 25.6171 13.5472C25.3993 13.1736 25.2686 12.7557 25.2347 12.3247C25.2008 11.8936 25.2646 11.4604 25.4213 11.0574C25.5209 10.7939 25.5356 10.5059 25.4633 10.2337C25.3909 9.96144 25.2352 9.71867 25.018 9.5394C24.0588 8.73395 22.967 8.10121 21.7913 7.66939C21.5236 7.56993 21.2313 7.55751 20.9561 7.63388C20.6809 7.71025 20.4368 7.87152 20.2586 8.09472C19.9904 8.43767 19.6476 8.71504 19.2563 8.9058C18.8649 9.09656 18.4353 9.1957 17.9999 9.1957C17.5646 9.1957 17.1349 9.09656 16.7436 8.9058C16.3522 8.71504 16.0094 8.43767 15.7413 8.09472C15.5631 7.87152 15.319 7.71025 15.0438 7.63388C14.7686 7.55751 14.4763 7.56993 14.2086 7.66939C13.123 8.06806 12.108 8.63745 11.2019 9.35606C10.9735 9.53688 10.809 9.78607 10.7324 10.0671C10.6559 10.3482 10.6714 10.6464 10.7766 10.9181C10.9458 11.3317 11.0157 11.7793 10.9807 12.2249C10.9457 12.6704 10.8068 13.1016 10.575 13.4838C10.3433 13.866 10.0252 14.1885 9.64633 14.4256C9.26743 14.6626 8.83824 14.8075 8.39321 14.8488C8.10428 14.8797 7.8329 15.0025 7.61903 15.1992C7.40516 15.3959 7.2601 15.6561 7.2052 15.9414C7.06865 16.6174 6.99986 17.3052 6.99986 17.9948C6.99886 18.5721 7.04546 19.1485 7.1392 19.7181C7.18585 20.0126 7.32821 20.2835 7.54428 20.489C7.76034 20.6945 8.03808 20.823 8.33454 20.8548C8.78935 20.8975 9.22732 21.0485 9.6118 21.2952C9.99627 21.5419 10.3161 21.8771 10.5444 22.2727C10.7727 22.6683 10.903 23.1129 10.9242 23.5693C10.9455 24.0256 10.8571 24.4803 10.6666 24.8955C10.5418 25.1655 10.5109 25.4695 10.5787 25.7591C10.6464 26.0488 10.809 26.3075 11.0406 26.4942C11.994 27.285 13.0753 27.9075 14.2379 28.3348C14.3866 28.3863 14.5426 28.4136 14.6999 28.4155C14.9156 28.415 15.1281 28.3629 15.3195 28.2633C15.5109 28.1638 15.6756 28.0198 15.7999 27.8435C16.0613 27.4627 16.4117 27.1514 16.8206 26.9367C17.2296 26.722 17.6847 26.6104 18.1466 26.6115C18.5941 26.6121 19.0353 26.7171 19.4351 26.9183C19.8349 27.1194 20.1821 27.4111 20.4493 27.7702C20.627 28.009 20.8787 28.1824 21.1652 28.2633C21.4517 28.3442 21.7569 28.3281 22.0333 28.2175C23.0964 27.7896 24.0861 27.1983 24.9666 26.4648C25.1878 26.282 25.3453 26.0336 25.4165 25.7556C25.4876 25.4776 25.4688 25.1841 25.3626 24.9175C25.1902 24.5092 25.115 24.0663 25.143 23.6239C25.171 23.1815 25.3014 22.7517 25.524 22.3684C25.7466 21.9851 26.0553 21.6587 26.4256 21.4151C26.796 21.1716 27.2178 21.0174 27.658 20.9648C27.9434 20.9253 28.2088 20.796 28.4158 20.5956C28.6228 20.3952 28.7607 20.1341 28.8093 19.8501C28.9271 19.2385 28.9909 18.6176 29 17.9948C29.0001 17.3378 28.9388 16.6823 28.8167 16.0368C28.7671 15.7591 28.6314 15.504 28.4286 15.3079C28.2259 15.1117 27.9665 14.9844 27.6873 14.9441ZM21.6666 17.9948C21.6666 18.72 21.4516 19.4289 21.0487 20.0319C20.6458 20.6349 20.0731 21.1048 19.4031 21.3824C18.7331 21.6599 17.9959 21.7325 17.2846 21.591C16.5733 21.4495 15.92 21.1003 15.4072 20.5875C14.8944 20.0747 14.5452 19.4214 14.4037 18.7101C14.2622 17.9988 14.3348 17.2616 14.6124 16.5916C14.8899 15.9216 15.3598 15.3489 15.9628 14.946C16.5658 14.5431 17.2747 14.3281 17.9999 14.3281C18.9724 14.3281 19.905 14.7144 20.5927 15.402C21.2803 16.0897 21.6666 17.0223 21.6666 17.9948Z" fill="#C9C9C9"/>
</svg>
