<svg width="10" height="11" viewBox="0 0 10 11" fill="none" xmlns="http://www.w3.org/2000/svg">
<path d="M5 5.1875C6.38071 5.1875 7.5 4.06821 7.5 2.6875C7.5 1.30679 6.38071 0.1875 5 0.1875C3.61929 0.1875 2.5 1.30679 2.5 2.6875C2.5 4.06821 3.61929 5.1875 5 5.1875Z" fill="#E0E0E0"/>
<path d="M10 9.5625V10.1875C10 10.3533 9.93415 10.5122 9.81694 10.6294C9.69973 10.7467 9.54076 10.8125 9.375 10.8125H0.625C0.45924 10.8125 0.300269 10.7467 0.183058 10.6294C0.0658481 10.5122 0 10.3533 0 10.1875V9.5625C0 8.56794 0.395088 7.61411 1.09835 6.91085C1.80161 6.20759 2.75544 5.8125 3.75 5.8125H6.25C7.24456 5.8125 8.19839 6.20759 8.90165 6.91085C9.60491 7.61411 10 8.56794 10 9.5625Z" fill="#E0E0E0"/>
</svg>
