<svg width="16" height="14" viewBox="0 0 16 14" fill="none" xmlns="http://www.w3.org/2000/svg">
<path d="M14.6817 9.71854L10.0839 2.0894C9.4661 1.06291 8.61121 0.5 7.67012 0.5C6.72902 0.5 5.87411 1.06291 5.25629 2.0894L0.658556 9.71854C0.0766553 10.6921 0.0119998 11.6258 0.478957 12.3609C0.945914 13.096 1.86546 13.5 3.07236 13.5H12.2678C13.4748 13.5 14.3943 13.096 14.8613 12.3609C15.3282 11.6258 15.2636 10.6854 14.6817 9.71854ZM7.13132 5.13576C7.13132 4.86424 7.37557 4.63907 7.67012 4.63907C7.96466 4.63907 8.20891 4.86424 8.20891 5.13576V8.44702C8.20891 8.71854 7.96466 8.94371 7.67012 8.94371C7.37557 8.94371 7.13132 8.71854 7.13132 8.44702V5.13576ZM8.18018 10.904C8.14426 10.9305 8.10834 10.957 8.07242 10.9834C8.02931 11.0099 7.98621 11.0298 7.94311 11.043C7.9 11.0629 7.8569 11.0762 7.80661 11.0828C7.76351 11.0894 7.71322 11.096 7.67012 11.096C7.62701 11.096 7.57672 11.0894 7.52644 11.0828C7.48333 11.0762 7.44023 11.0629 7.39713 11.043C7.35402 11.0298 7.31092 11.0099 7.26781 10.9834C7.2319 10.957 7.19597 10.9305 7.16006 10.904C7.03074 10.7781 6.95172 10.606 6.95172 10.4338C6.95172 10.2616 7.03074 10.0894 7.16006 9.96358L7.26781 9.88411C7.31092 9.85762 7.35402 9.83775 7.39713 9.8245C7.44023 9.80464 7.48333 9.79139 7.52644 9.78477C7.61983 9.7649 7.7204 9.7649 7.80661 9.78477C7.8569 9.79139 7.9 9.80464 7.94311 9.8245C7.98621 9.83775 8.02931 9.85762 8.07242 9.88411L8.18018 9.96358C8.30949 10.0894 8.38851 10.2616 8.38851 10.4338C8.38851 10.606 8.30949 10.7781 8.18018 10.904Z" fill="#0087EC"/>
</svg>
