<svg width="18" height="18" viewBox="0 0 18 18" fill="none" xmlns="http://www.w3.org/2000/svg">
<path d="M12.1992 6.39844C9.00067 6.39844 6.39844 9.00067 6.39844 12.1992C6.39844 15.3978 9.00067 18 12.1992 18C15.3978 18 18 15.3978 18 12.1992C18 9.00067 15.3978 6.39844 12.1992 6.39844ZM12.1992 11.6719C13.0716 11.6719 13.7812 12.3815 13.7812 13.2539C13.7812 13.9405 13.3391 14.5204 12.7266 14.7388V15.8906H11.6719V14.7388C11.0594 14.5204 10.6172 13.9405 10.6172 13.2539H11.6719C11.6719 13.5449 11.9083 13.7812 12.1992 13.7812C12.4902 13.7812 12.7266 13.5449 12.7266 13.2539C12.7266 12.963 12.4902 12.7266 12.1992 12.7266C11.3269 12.7266 10.6172 12.0169 10.6172 11.1445C10.6172 10.4579 11.0594 9.87806 11.6719 9.65964V8.50781H12.7266V9.65964C13.3391 9.87806 13.7812 10.4579 13.7812 11.1445H12.7266C12.7266 10.8536 12.4902 10.6172 12.1992 10.6172C11.9083 10.6172 11.6719 10.8536 11.6719 11.1445C11.6719 11.4355 11.9083 11.6719 12.1992 11.6719Z" fill="#CFCFCF"/>
<path d="M5.87109 6.39844C9.12375 6.39844 11.6719 5.0085 11.6719 3.23438C11.6719 1.46025 9.12375 0 5.87109 0C2.61844 0 0 1.46025 0 3.23438C0 5.0085 2.61844 6.39844 5.87109 6.39844Z" fill="#CFCFCF"/>
<path d="M0 11.8673V12.7266C0 14.5007 2.61844 15.8906 5.87109 15.8906C6.05559 15.8906 6.23436 15.8736 6.41602 15.8648C6.01151 15.2287 5.70983 14.523 5.53219 13.7686C3.18006 13.7036 1.13773 12.9808 0 11.8673Z" fill="#CFCFCF"/>
<path d="M5.3691 12.6997C5.357 12.5338 5.34375 12.3681 5.34375 12.1992C5.34375 11.6495 5.41579 11.1174 5.53862 10.6048C3.18357 10.541 1.13875 9.81781 0 8.70325V9.5625C0 11.2425 2.36468 12.5628 5.3691 12.6997Z" fill="#CFCFCF"/>
<path d="M5.87109 9.5625C5.87166 9.5625 5.87211 9.56243 5.87271 9.56243C6.22051 8.7312 6.72609 7.98188 7.35395 7.35406C6.87769 7.41424 6.3855 7.45313 5.87109 7.45313C3.36737 7.45313 1.19271 6.70651 0 5.53918V6.39844C0 8.17256 2.61844 9.5625 5.87109 9.5625Z" fill="#CFCFCF"/>
</svg>
