<svg width="20" height="21" viewBox="0 0 20 21" fill="none" xmlns="http://www.w3.org/2000/svg">
<path d="M5.5 9.99788C5.5 7.72621 5.5 6.59038 6.2025 5.88454C6.90583 5.17871 8.03667 5.17871 10.3 5.17871H12.7C14.9625 5.17871 16.0942 5.17871 16.7967 5.88454C17.5 6.59038 17.5 7.72621 17.5 9.99788V14.0145C17.5 16.2862 17.5 17.422 16.7967 18.1279C16.0942 18.8337 14.9625 18.8337 12.7 18.8337H10.3C8.03667 18.8337 6.90583 18.8337 6.2025 18.1279C5.49917 17.422 5.5 16.2862 5.5 14.0145V9.99788Z" fill="#0087EC"/>
<path opacity="0.5" d="M3.47667 3.14366C2.5 4.11949 2.5 5.69116 2.5 8.83366V10.5003C2.5 13.6428 2.5 15.2145 3.47667 16.1903C3.99083 16.7053 4.67083 16.9487 5.66 17.0637C5.5 16.3637 5.5 15.4003 5.5 14.0137V9.99783C5.5 7.72616 5.5 6.59033 6.2025 5.88449C6.90583 5.17866 8.03667 5.17866 10.3 5.17866H12.7C14.0767 5.17866 15.0333 5.17866 15.7317 5.33699C15.6167 4.34283 15.3733 3.66033 14.8567 3.14366C13.8808 2.16699 12.3092 2.16699 9.16667 2.16699C6.02417 2.16699 4.4525 2.16699 3.47667 3.14366Z" fill="#0087EC"/>
</svg>
