<svg width="24" height="24" viewBox="0 0 24 24" fill="none" xmlns="http://www.w3.org/2000/svg">
<path d="M15 8.11111C15 7.49579 14.8241 6.89429 14.4944 6.38267C14.1648 5.87105 13.6962 5.47229 13.1481 5.23682C12.5999 5.00135 11.9967 4.93974 11.4147 5.05978C10.8328 5.17982 10.2982 5.47613 9.87868 5.91122C9.45912 6.34632 9.1734 6.90067 9.05764 7.50416C8.94189 8.10766 9.0013 8.7332 9.22836 9.30168C9.45542 9.87016 9.83994 10.3561 10.3333 10.6979C10.8266 11.0398 11.4067 11.2222 12 11.2222C12.7954 11.2213 13.5579 10.8932 14.1203 10.3099C14.6827 9.7267 14.9991 8.93594 15 8.11111ZM10 8.11111C10 7.7009 10.1173 7.2999 10.3371 6.95882C10.5568 6.61774 10.8692 6.3519 11.2346 6.19492C11.6001 6.03794 12.0022 5.99686 12.3902 6.07689C12.7781 6.15692 13.1345 6.35446 13.4142 6.64452C13.6939 6.93459 13.8844 7.30415 13.9616 7.70648C14.0387 8.10881 13.9991 8.52584 13.8478 8.90483C13.6964 9.28381 13.44 9.60774 13.1111 9.83564C12.7822 10.0635 12.3956 10.1852 12 10.1852C11.4697 10.1846 10.9613 9.96594 10.5864 9.5771C10.2114 9.18825 10.0005 8.66102 10 8.11111ZM13.5 12.2593H10.5C9.30693 12.2606 8.16311 12.7527 7.31948 13.6276C6.47585 14.5025 6.00132 15.6887 6 16.9259V17.4444C6.0004 17.8569 6.15856 18.2523 6.43978 18.5439C6.721 18.8356 7.1023 18.9996 7.5 19H16.5C16.8977 18.9996 17.279 18.8356 17.5602 18.5439C17.8414 18.2523 17.9996 17.8569 18 17.4444V16.9259C17.9987 15.6887 17.5241 14.5025 16.6805 13.6276C15.8369 12.7527 14.6931 12.2606 13.5 12.2593ZM17 17.4444C17 17.582 16.9473 17.7139 16.8536 17.8111C16.7598 17.9083 16.6326 17.963 16.5 17.963H7.5C7.36739 17.963 7.24021 17.9083 7.14645 17.8111C7.05268 17.7139 7 17.582 7 17.4444V16.9259C7.00106 15.9636 7.37015 15.0411 8.0263 14.3606C8.68244 13.6802 9.57207 13.2974 10.5 13.2963H13.5C14.4279 13.2974 15.3176 13.6802 15.9737 14.3606C16.6299 15.0411 16.9989 15.9636 17 16.9259V17.4444Z" fill="#696969"/>
</svg>
