<svg width="16" height="20" viewBox="0 0 16 20" fill="none" xmlns="http://www.w3.org/2000/svg">
<path d="M7.68119 4.2793C4.2355 4.2793 0 9.61152 0 13.9494C0 15.5954 0.585711 16.9138 1.74151 17.8687C3.05235 18.9514 5.05059 19.5002 7.68115 19.5002C10.3021 19.5002 12.2947 18.947 13.6027 17.8555C14.7557 16.8937 15.3402 15.5668 15.3402 13.9121C15.3403 9.59103 11.1172 4.2793 7.68119 4.2793ZM7.97725 11.7298C8.85665 12.1946 9.95137 12.7735 9.95137 13.9209C9.95137 14.9542 9.25396 15.8261 8.30586 16.0957V16.3891C8.30586 16.7298 8.02947 17.0062 7.68879 17.0062C7.34812 17.0062 7.07173 16.7298 7.07173 16.3891V16.0957C6.12363 15.8261 5.42622 14.9542 5.42622 13.9209C5.42622 13.5802 5.70262 13.3038 6.04329 13.3038C6.38396 13.3038 6.66036 13.5802 6.66036 13.9209C6.66036 14.4881 7.12156 14.9493 7.68879 14.9493C8.25602 14.9493 8.71723 14.4881 8.71723 13.9209C8.71723 13.5168 8.04791 13.1632 7.40034 12.821C6.52094 12.3562 5.42622 11.7773 5.42622 10.6299C5.42622 9.59664 6.12363 8.72469 7.07173 8.45513V8.16166C7.07173 7.82099 7.34812 7.54459 7.68879 7.54459C8.02947 7.54459 8.30586 7.82099 8.30586 8.16166V8.45513C9.25396 8.72469 9.95137 9.59664 9.95137 10.6299C9.95137 10.9706 9.67497 11.247 9.3343 11.247C8.99363 11.247 8.71723 10.9706 8.71723 10.6299C8.71723 10.0627 8.25602 9.60146 7.68879 9.60146C7.12156 9.60146 6.66036 10.0627 6.66036 10.6299C6.6604 11.034 7.32964 11.3876 7.97725 11.7298Z" fill="#0087EC"/>
<path d="M11.0485 1.2625C10.7633 1.11625 10.413 1.21226 10.2431 1.48427C9.98515 1.89768 9.62559 2.00129 9.3693 2.01536C8.92339 2.04709 8.47543 1.82053 8.16493 1.42842C7.69805 0.83826 6.95925 0.5 6.13852 0.5C5.3178 0.5 4.579 0.83826 4.11216 1.42839C3.97314 1.60355 3.94019 1.83975 4.02539 2.04664C4.09438 2.21394 4.43327 2.99455 4.99586 3.77268C5.88321 3.3101 6.79523 3.04532 7.68116 3.04532C8.56691 3.04532 9.47893 3.31025 10.366 3.77323C10.9289 2.99488 11.268 2.2139 11.337 2.04657C11.4591 1.7498 11.3337 1.40913 11.0485 1.2625Z" fill="#0087EC"/>
</svg>
