<svg width="46" height="30" viewBox="0 0 46 30" fill="none" xmlns="http://www.w3.org/2000/svg">
<path d="M44.6523 10.7931C45.3965 10.7931 45.9999 10.2197 45.9999 9.51232V6.3157C45.9999 2.361 43.5157 0 39.3546 0H31.565V4.02463C31.4987 5.72225 28.9354 5.72097 28.8697 4.02463V0H6.64528C2.48417 0 0 2.36109 0 6.31579V9.5124C0 10.2198 0.603389 10.7932 1.34765 10.7932C7.21219 11.005 7.20959 18.9964 1.34756 19.2069C0.6033 19.2069 0 19.7803 0 20.4877V23.6843C0 27.639 2.48417 30 6.64528 30H28.8698V25.9754C28.9361 24.2778 31.4994 24.279 31.5651 25.9754V30H39.3547C43.5157 30 46 27.639 46 23.6843V20.4877C46 19.7803 45.3966 19.2069 44.6523 19.2069C38.7878 18.9953 38.7904 11.0035 44.6523 10.7931ZM31.565 20.4877C31.4987 22.1853 28.9354 22.184 28.8697 20.4877V17.7439C28.936 16.0463 31.4993 16.0476 31.565 17.7439V20.4877ZM31.565 12.2562C31.4987 13.9538 28.9354 13.9525 28.8697 12.2562V9.5124C28.936 7.81479 31.4993 7.81607 31.565 9.5124V12.2562Z" fill="#D8D8D8"/>
</svg>
